<?xml version="1.0" standalone="no"?>
<!DOCTYPE svg PUBLIC "-//W3C//DTD SVG 20010904//EN"
 "http://www.w3.org/TR/2001/REC-SVG-20010904/DTD/svg10.dtd">
<svg version="1.0" xmlns="http://www.w3.org/2000/svg"
 width="700.000000pt" height="700.000000pt" viewBox="0 0 700.000000 700.000000"
 preserveAspectRatio="xMidYMid meet">
<metadata>
Created by potrace 1.14, written by Peter Selinger 2001-2017
</metadata>
<g transform="translate(0.000000,700.000000) scale(0.100000,-0.100000)"
fill="#000000" stroke="none">
<path d="M2955 6986 c-155 -38 -291 -147 -358 -286 -41 -86 -47 -108 -52 -205
-5 -98 10 -167 55 -260 88 -180 253 -285 455 -291 108 -4 158 6 250 51 327
157 399 594 139 850 -101 99 -205 144 -349 150 -51 2 -112 -2 -140 -9z"/>
<path d="M3645 5934 c-83 -19 -171 -52 -230 -87 -50 -29 -75 -47 -275 -201
-284 -217 -367 -281 -391 -300 -14 -12 -38 -30 -53 -41 -15 -11 -96 -72 -179
-136 -125 -97 -154 -115 -171 -108 -12 4 -115 42 -231 83 -115 41 -255 91
-310 111 -115 42 -174 46 -231 17 -49 -25 -67 -45 -93 -102 -36 -78 -23 -166
32 -220 29 -29 107 -70 392 -205 50 -23 158 -75 240 -115 209 -101 261 -118
340 -114 36 2 81 10 99 18 19 8 121 72 227 143 107 70 196 129 200 131 4 2 14
-16 22 -40 29 -84 159 -455 204 -583 25 -71 46 -136 46 -144 2 -16 0 -16 -108
-25 -44 -4 -96 -9 -115 -11 -19 -2 -71 -7 -115 -10 -44 -3 -100 -7 -125 -10
-25 -2 -76 -7 -115 -10 -38 -4 -83 -8 -100 -11 -181 -28 -317 -185 -317 -364
0 -64 5 -92 57 -265 27 -93 98 -336 142 -485 176 -607 166 -581 263 -634 136
-74 310 -4 354 143 17 59 15 82 -23 286 -11 55 -22 116 -25 135 -3 19 -14 80
-25 135 -10 55 -29 152 -40 215 -12 63 -24 125 -27 138 -3 16 0 22 13 23 10 0
25 2 33 3 8 2 71 7 140 10 69 4 141 9 160 11 35 3 145 11 295 20 44 3 105 7
135 10 30 2 100 7 155 10 168 10 281 54 373 147 128 129 170 315 112 503 -12
39 -37 126 -55 195 -19 69 -39 141 -45 160 -33 111 -160 582 -159 590 0 3 -4
17 -10 33 -11 28 -71 250 -71 262 0 3 3 4 8 1 7 -4 60 -7 342 -21 198 -10 181
-3 300 -119 58 -57 152 -148 209 -203 l103 -100 -12 -35 c-11 -30 -10 -46 4
-104 10 -38 19 -76 21 -85 2 -12 -24 -22 -127 -47 -72 -17 -142 -39 -155 -48
-38 -24 -54 -72 -42 -125 6 -24 12 -52 14 -62 2 -10 7 -27 10 -37 3 -10 8 -27
10 -38 2 -10 20 -86 40 -168 20 -82 38 -156 40 -164 62 -284 86 -311 246 -270
46 12 91 23 99 25 8 2 44 11 80 20 36 9 76 18 90 21 14 3 77 18 140 34 63 16
219 54 345 85 127 30 244 62 262 70 40 18 65 55 65 97 -1 38 -163 699 -182
740 -7 15 -29 35 -48 44 -34 16 -39 16 -179 -18 l-143 -35 -6 26 c-20 82 -34
132 -43 149 -15 27 -71 52 -109 47 -28 -4 -34 0 -50 29 -32 61 -456 608 -496
641 -23 18 -61 40 -86 48 -25 9 -97 34 -160 57 -63 23 -126 46 -140 50 -14 5
-70 25 -125 45 -94 34 -213 77 -313 111 -123 43 -291 54 -407 28z m1816 -1179
c8 -36 13 -69 10 -73 -6 -6 -113 -37 -171 -48 -14 -3 -58 -14 -99 -25 -77 -20
-90 -17 -91 21 -1 8 -7 32 -14 53 -15 42 -15 42 24 22 41 -21 108 -24 153 -6
34 13 53 30 109 100 10 11 28 21 40 21 20 0 25 -9 39 -65z"/>
<path d="M240 1761 l0 -1761 505 0 506 0 -2 1459 -1 1460 -127 77 c-69 42
-139 84 -156 94 -16 9 -106 63 -200 120 -93 57 -183 111 -200 120 -16 10 -90
55 -164 100 -74 45 -141 84 -148 87 -11 4 -13 -302 -13 -1756z"/>
<path d="M4506 3460 c-33 -56 -130 -152 -200 -198 -105 -68 -239 -110 -358
-111 -24 -1 -38 -6 -38 -13 0 -13 112 -290 130 -320 5 -10 10 -22 10 -28 0 -5
11 -33 24 -62 13 -29 34 -79 47 -110 42 -107 178 -264 381 -440 12 -10 58 -51
101 -91 44 -40 85 -76 91 -82 15 -13 95 -86 220 -200 141 -129 153 -138 205
-156 163 -57 337 82 318 255 -3 28 -12 65 -21 81 -15 29 -94 124 -180 215 -24
25 -123 135 -222 245 -98 110 -197 220 -219 243 -27 29 -46 63 -57 100 -119
409 -202 688 -208 694 -3 4 -14 -6 -24 -22z"/>
<path d="M1478 2767 c-3 -10 -2 -2737 1 -2759 1 -5 269 -8 596 -8 560 0 595 1
596 18 1 22 1 2013 0 2028 -1 6 -29 29 -63 51 -54 34 -505 307 -586 354 -15 9
-143 86 -284 172 -145 87 -258 150 -260 144z"/>
<path d="M3930 2079 c-14 -10 -28 -19 -33 -19 -4 0 -26 -11 -48 -26 -22 -14
-55 -33 -72 -43 -49 -28 -208 -120 -361 -210 -77 -45 -146 -79 -153 -77 -12 5
-285 168 -340 204 l-22 14 0 -961 0 -961 599 0 598 0 0 1013 0 1012 -72 37
c-72 36 -72 36 -96 17z"/>
<path d="M4329 1867 c-3 -26 -3 -1811 0 -1855 1 -10 124 -12 598 -10 l597 3 0
630 1 630 -85 46 c-47 25 -94 50 -105 56 -11 5 -31 16 -45 23 -14 8 -54 29
-90 48 -64 34 -629 334 -786 418 l-82 43 -3 -32z"/>
<path d="M5750 570 l0 -570 505 0 505 0 -2 306 -3 305 -50 28 c-27 15 -99 53
-160 86 -60 32 -141 75 -180 95 -38 21 -119 63 -180 95 -60 32 -132 70 -160
85 -169 91 -263 140 -269 140 -3 0 -6 -256 -6 -570z"/>
</g>
</svg>
